# xmcd
# Track frame offsets:
# 150
# 11892
# 26000
# 38035
# 50009
# 60924
# 72641
# 85561
# 96309
# 111143
# 123469
# 134378
# 148344
# 160018
# 174051
# 189065
#
# Disc length: 2685 seconds
# Revision: 0
# Processed by: cddbd v1.5.1PL2 Copyright (c) Steve Scherf et al.
# Submitted via: VisiTrax 2.10.0.248 - For more info visit www.synapsa.com
#
DISCID=d40a7b10
DTITLE=Autry, Gene - Back In The Saddle Again
DYEAR=1900
DGENRE=
TTITLE0=Back In The Saddle Again
TTITLE1=Mexicali Rose
TTITLE2=I've Got Spurs That Jingle, Jangle, Jingle
TTITLE3=El Rancho Grande
TTITLE4=You Art My Sunshine
TTITLE5=Blueberry Hill
TTITLE6=Yellow Rose Of Texas
TTITLE7=I'm Thinking Tonight Of My Blue Eyes
TTITLE8=Tumblin' Tumbleweeds
TTITLE9=It Makes No Difference Now
TTITLE10=Red River Valley
TTITLE11=Amapola
TTITLE12=Call Of The Canyon
TTITLE13=Maria Elena
TTITLE14=Last Round-Up, The
TTITLE15=Deep In The Heart Of Texas
EXTD=
EXTT0=
EXTT1=
EXTT2=
EXTT3=
EXTT4=
EXTT5=
EXTT6=
EXTT7=
EXTT8=
EXTT9=
EXTT10=
EXTT11=
EXTT12=
EXTT13=
EXTT14=
EXTT15=
PLAYORDER=
